<?xml version="1.0" encoding="UTF-8"?>
<svg xmlns="http://www.w3.org/2000/svg" xmlns:xlink="http://www.w3.org/1999/xlink" width="842.38pt" height="258.33pt" viewBox="0 0 842.38 258.33" version="1.1">
<defs>
<clipPath id="clip1">
  <path d="M 678 75 L 842.378906 75 L 842.378906 258.328125 L 678 258.328125 Z M 678 75 "/>
</clipPath>
<clipPath id="clip2">
  <path d="M 0 75 L 161 75 L 161 258.328125 L 0 258.328125 Z M 0 75 "/>
</clipPath>
</defs>
<g id="surface1">
<path style=" stroke:none;fill-rule:nonzero;fill:rgb(25.898743%,72.499084%,49.798584%);fill-opacity:1;" d="M 547.875 192.175781 C 538.5 192.175781 535.421875 180.386719 535.285156 169.140625 C 535.019531 149.585938 547.742188 135.523438 547.875 135.253906 C 548.144531 135.523438 560.734375 149.585938 560.464844 169.140625 C 560.464844 180.386719 557.25 192.175781 547.875 192.175781 Z M 600.777344 75.125 C 584.972656 75.125 566.089844 80.75 548.007813 100.300781 C 529.929688 80.75 510.914063 75.125 495.242188 75.125 C 495.242188 75.125 434.847656 70.570313 434.847656 141.148438 L 434.847656 255.382813 L 478.640625 255.382813 L 478.640625 147.578125 C 478.640625 115.972656 499.796875 115.300781 503.949219 116.238281 C 503.949219 116.238281 511.582031 116.640625 518.546875 123.871094 C 518.546875 123.871094 504.617188 142.085938 503.546875 164.984375 C 503.546875 164.984375 500.46875 224.3125 548.007813 224.3125 C 595.554688 224.3125 592.472656 164.984375 592.472656 164.984375 C 591.402344 142.085938 577.472656 123.871094 577.472656 123.871094 C 584.4375 116.640625 592.070313 116.238281 592.070313 116.238281 C 596.089844 115.300781 617.382813 115.972656 617.382813 147.578125 L 617.382813 255.382813 L 661.175781 255.382813 L 661.175781 141.148438 C 661.039063 70.570313 600.777344 75.125 600.777344 75.125 "/>
<path style=" stroke:none;fill-rule:nonzero;fill:rgb(25.898743%,72.499084%,49.798584%);fill-opacity:1;" d="M 366.410156 78.070313 L 410.203125 78.070313 L 410.203125 255.519531 L 366.410156 255.519531 L 366.410156 78.070313 "/>
<path style=" stroke:none;fill-rule:nonzero;fill:rgb(25.898743%,72.499084%,49.798584%);fill-opacity:1;" d="M 388.375 1.199219 C 373.777344 1.199219 361.722656 12.984375 361.722656 27.449219 C 361.722656 42.046875 373.644531 54.101563 388.375 54.101563 C 402.839844 54.101563 414.625 42.179688 414.625 27.449219 C 414.625 13.253906 402.703125 1.199219 388.375 1.199219 "/>
<path style=" stroke:none;fill-rule:nonzero;fill:rgb(25.898743%,72.499084%,49.798584%);fill-opacity:1;" d="M 227.800781 89.988281 L 227.800781 -0.00390625 L 184.410156 -0.00390625 L 184.410156 255.519531 L 227.800781 255.519531 L 227.800781 127.621094 C 299.71875 92.667969 297.039063 147.980469 297.039063 147.980469 L 297.039063 255.519531 L 340.5625 255.519531 L 340.5625 147.980469 C 340.429688 44.054688 249.632813 78.339844 227.800781 89.988281 "/>
<g clip-path="url(#clip1)" clip-rule="nonzero">
<path style=" stroke:none;fill-rule:nonzero;fill:rgb(25.898743%,72.499084%,49.798584%);fill-opacity:1;" d="M 726.664063 138.070313 C 734.027344 119.453125 749.296875 109.675781 770.992188 109.675781 C 788.804688 109.675781 799.113281 117.175781 799.113281 129.097656 C 799.113281 145.835938 780.230469 147.308594 762.554688 147.308594 C 745.144531 147.308594 734.429688 145.433594 729.609375 144.226563 L 724.921875 143.15625 Z M 721.304688 175.433594 C 744.605469 183.601563 774.203125 182.933594 774.203125 182.933594 C 844.382813 182.53125 842.371094 131.507813 842.371094 131.507813 C 840.628906 74.054688 773.132813 75.125 773.132813 75.125 C 717.289063 75.125 678.183594 113.425781 678.183594 168.203125 C 678.183594 222.976563 716.484375 258.328125 775.679688 258.328125 C 800.855469 258.328125 824.828125 251.367188 841.570313 239.179688 L 841.570313 196.992188 C 824.023438 212.128906 803 220.164063 780.769531 220.164063 C 780.902344 220.164063 720.101563 223.242188 721.304688 175.433594 "/>
</g>
<g clip-path="url(#clip2)" clip-rule="nonzero">
<path style=" stroke:none;fill-rule:nonzero;fill:rgb(25.898743%,72.499084%,49.798584%);fill-opacity:1;" d="M 94.546875 258.328125 C 125.351563 258.328125 147.179688 246.679688 160.171875 236.902344 L 160.171875 194.449219 C 141.019531 209.582031 118.519531 218.285156 98.566406 218.285156 C 66.691406 218.285156 44.328125 196.324219 44.328125 164.71875 C 44.328125 134.71875 64.683594 113.828125 93.746094 113.828125 C 103.253906 113.828125 111.421875 116.238281 120.128906 118.648438 C 129.101563 121.191406 138.476563 124.003906 149.589844 124.003906 C 153.074219 124.003906 156.554688 123.738281 160.035156 123.203125 L 160.035156 82.757813 C 157.089844 83.023438 154.277344 83.292969 151.332031 83.292969 C 141.289063 83.292969 132.179688 81.417969 122.671875 79.410156 C 112.628906 77.265625 102.316406 75.125 90.128906 75.125 C 65.890625 75.125 43.390625 83.695313 26.917969 99.496094 C 9.375 116.238281 0 139.542969 0 166.726563 C 0 220.699219 38.835938 258.328125 94.546875 258.328125 "/>
</g>
</g>
</svg>
